<?xml version="1.0" encoding="UTF-8" standalone="no"?>
<!DOCTYPE svg PUBLIC "-//W3C//DTD SVG 1.1//EN" "http://www.w3.org/Graphics/SVG/1.1/DTD/svg11.dtd">
<svg width="100%" height="100%" viewBox="0 0 378 83" version="1.1" xmlns="http://www.w3.org/2000/svg" xmlns:xlink="http://www.w3.org/1999/xlink" xml:space="preserve" xmlns:serif="http://www.serif.com/" style="fill-rule:evenodd;clip-rule:evenodd;stroke-miterlimit:1.5;">
    <g transform="matrix(0.75,0,0,0.75,0,0)">
        <g transform="matrix(92.7467,0,0,92.7467,107.579,78.2792)">
            <path d="M0.213,-0.11L0.625,-0.613L0.625,-0.7L0.048,-0.7L0.048,-0.59L0.453,-0.59L0.041,-0.087L0.041,-0L0.638,-0L0.638,-0.11L0.213,-0.11Z" style="fill:rgb(121,121,121);fill-rule:nonzero;"/>
        </g>
        <g transform="matrix(92.7467,0,0,92.7467,167.491,78.2792)">
            <path d="M0.385,-0.54C0.307,-0.54 0.242,-0.514 0.201,-0.465L0.201,-0.534L0.082,-0.534L0.082,-0L0.207,-0L0.207,-0.27C0.207,-0.377 0.267,-0.431 0.356,-0.431C0.436,-0.431 0.483,-0.385 0.483,-0.29L0.483,-0L0.608,-0L0.608,-0.306C0.608,-0.467 0.513,-0.54 0.385,-0.54Z" style="fill:rgb(121,121,121);fill-rule:nonzero;"/>
        </g>
        <g transform="matrix(92.7467,0,0,92.7467,225.458,78.2792)">
            <path d="M0.474,-0.534L0.474,-0.264C0.474,-0.157 0.415,-0.103 0.328,-0.103C0.249,-0.103 0.203,-0.149 0.203,-0.246L0.203,-0.534L0.078,-0.534L0.078,-0.229C0.078,-0.068 0.171,0.007 0.308,0.007C0.377,0.007 0.44,-0.019 0.48,-0.068L0.48,-0L0.599,-0L0.599,-0.534L0.474,-0.534Z" style="fill:rgb(121,121,121);fill-rule:nonzero;"/>
        </g>
        <g transform="matrix(92.7467,0,0,92.7467,283.981,78.2792)">
            <path d="M0.385,-0.54C0.307,-0.54 0.242,-0.514 0.201,-0.465L0.201,-0.534L0.082,-0.534L0.082,-0L0.207,-0L0.207,-0.27C0.207,-0.377 0.267,-0.431 0.356,-0.431C0.436,-0.431 0.483,-0.385 0.483,-0.29L0.483,-0L0.608,-0L0.608,-0.306C0.608,-0.467 0.513,-0.54 0.385,-0.54Z" style="fill:rgb(121,121,121);fill-rule:nonzero;"/>
        </g>
        <g transform="matrix(92.7467,0,0,92.7467,343.803,78.2792)">
            <path d="M0.462,-0.534L0.293,-0.139L0.125,-0.534L-0.005,-0.534L0.228,0.002L0.176,0.122C0.152,0.175 0.126,0.196 0.082,0.196C0.048,0.196 0.014,0.182 -0.01,0.159L-0.06,0.251C-0.026,0.282 0.03,0.3 0.083,0.3C0.172,0.3 0.24,0.263 0.289,0.142L0.582,-0.534L0.462,-0.534Z" style="fill:rgb(121,121,121);fill-rule:nonzero;"/>
        </g>
        <g transform="matrix(3.34745,0,0,3.34745,-1.11893,0.602982)">
            <path d="M1.516,19.508L12.622,13.544L1.516,7.581C3.748,3.66 8.11,1 13.127,1C20.414,1 26.321,6.616 26.321,13.544C26.321,20.472 20.414,26.087 13.127,26.087C8.11,26.087 3.747,23.427 1.516,19.507L1.516,19.508Z" style="fill:rgb(121,121,121);"/>
        </g>
        <g transform="matrix(0.666033,0,0,0.661176,-281.826,-196.047)">
            <path d="M1059.71,340.044L1059.71,457.034" style="fill:none;stroke:rgb(121,121,121);stroke-width:6.25px;"/>
        </g>
        <g transform="matrix(0.747237,0,0,0.747237,1.10871,-30.2305)">
            <g transform="matrix(52.4027,0,0,52.4027,595.804,182.136)">
                <path d="M0.523,-0.688L0.523,-0.611C0.5,-0.589 0.471,-0.551 0.433,-0.497C0.396,-0.443 0.363,-0.385 0.334,-0.322C0.306,-0.261 0.285,-0.206 0.27,-0.156C0.261,-0.124 0.248,-0.072 0.233,-0L0.136,-0C0.158,-0.133 0.207,-0.266 0.283,-0.398C0.327,-0.476 0.374,-0.543 0.423,-0.599L0.037,-0.599L0.037,-0.688L0.523,-0.688Z" style="fill:rgb(121,121,121);fill-rule:nonzero;"/>
            </g>
            <g transform="matrix(52.4027,0,0,52.4027,624.948,182.136)">
                <rect x="0.085" y="-0.106" width="0.102" height="0.106" style="fill:rgb(121,121,121);fill-rule:nonzero;"/>
            </g>
            <g transform="matrix(52.4027,0,0,52.4027,639.507,182.136)">
                <path d="M0.031,-0C0.035,-0.06 0.047,-0.113 0.069,-0.157C0.09,-0.202 0.132,-0.242 0.195,-0.279L0.289,-0.333C0.331,-0.357 0.361,-0.378 0.377,-0.396C0.404,-0.423 0.417,-0.453 0.417,-0.488C0.417,-0.529 0.405,-0.561 0.381,-0.585C0.356,-0.609 0.324,-0.621 0.283,-0.621C0.223,-0.621 0.181,-0.598 0.158,-0.553C0.146,-0.528 0.139,-0.494 0.138,-0.451L0.048,-0.451C0.049,-0.512 0.061,-0.562 0.082,-0.6C0.12,-0.668 0.187,-0.702 0.284,-0.702C0.364,-0.702 0.422,-0.68 0.459,-0.637C0.496,-0.593 0.515,-0.545 0.515,-0.492C0.515,-0.436 0.495,-0.388 0.456,-0.349C0.433,-0.326 0.392,-0.298 0.333,-0.265L0.266,-0.228C0.234,-0.21 0.209,-0.193 0.191,-0.177C0.158,-0.149 0.138,-0.118 0.129,-0.083L0.511,-0.083L0.511,-0L0.031,-0Z" style="fill:rgb(121,121,121);fill-rule:nonzero;"/>
            </g>
        </g>
    </g>
</svg>
